# Blender v2.93.5 OBJ File: 'BaseMeshes.blend'
# www.blender.org
mtllib new_state.mtl
o New_state
v 0.333333 0.000000 -0.333333
v 1.000000 0.000000 -0.333333
v 1.000000 0.000000 -1.000000
v 0.333333 0.000000 -1.000000
v 0.333333 -0.000000 1.000000
v 1.000000 -0.000000 1.000000
v 1.000000 -0.000000 0.333333
v 0.333333 -0.000000 0.333333
v -1.000000 -0.000000 1.000000
v -0.333333 -0.000000 1.000000
v -0.333333 -0.000000 0.333333
v -1.000000 -0.000000 0.333333
v -1.000000 0.000000 -0.333333
v -0.333333 0.000000 -0.333333
v -0.333333 0.000000 -1.000000
v -1.000000 0.000000 -1.000000
v -0.333333 1.633710 1.000000
v 0.333333 1.633710 1.000000
v 0.333333 1.633710 0.616894
v -0.333333 1.633710 0.616894
v -0.333333 0.816855 1.000000
v -0.333333 0.816855 0.616894
v -1.000000 1.633710 1.000000
v -1.000000 2.450565 1.000000
v -0.333333 2.450565 1.000000
v -1.000000 1.633710 -0.333333
v -1.000000 1.633710 -1.000000
v -1.000000 2.450565 -1.000000
v -1.000000 2.450565 -0.333333
v 0.333333 2.450565 1.000000
v -1.000000 1.633710 0.333333
v -1.000000 2.450565 0.333333
v 1.000000 1.633710 1.000000
v 1.000000 2.450565 1.000000
v 1.000000 2.450565 -0.333333
v 1.000000 2.450565 0.333333
v 1.000000 2.450565 -1.000000
v 0.333333 0.816855 1.000000
v 1.000000 0.816855 1.000000
v -1.000000 0.816855 -0.333333
v -1.148497 0.816855 -0.333333
v -1.148497 0.000000 -0.333333
v -1.148497 1.633710 -0.333333
v -1.000000 0.816855 0.333333
v -1.000000 0.816855 1.000000
v 0.333333 0.816855 0.616894
v -1.000000 0.816855 -1.000000
v -1.148497 1.633710 0.333333
v -1.148497 0.816855 0.333333
v -1.148497 0.816855 1.000000
v -1.148497 2.450565 1.000000
v -1.148497 2.450565 -1.000000
v -1.148497 -0.000000 0.333333
v -1.148497 0.000000 -1.000000
v -1.148497 0.816855 -1.000000
v -1.666044 0.816855 -1.000000
v -1.666044 0.000000 -1.000000
v -1.148497 -0.000000 1.000000
v -1.666044 -0.000000 1.000000
v -1.666044 0.816855 1.000000
v -1.666044 0.000000 -0.333333
v -1.666044 -0.000000 0.333333
v -1.666044 2.450565 1.000000
v -1.666044 2.450565 -1.000000
vt 1.000000 0.666667
vt 0.666667 1.000000
vt 0.666667 0.666667
vt 1.000000 0.000000
vt 0.666667 0.333333
vt 0.666667 0.000000
vt 0.333333 0.000000
vt 0.000000 0.333333
vt 0.000000 0.000000
vt 0.333333 0.333333
vt 0.333333 0.666667
vt 0.000000 1.000000
vt 0.000000 0.666667
vt 0.333333 1.000000
vt 0.666667 0.000000
vt 0.333333 0.000000
vt 0.333333 0.000000
vt 0.333333 0.000000
vt 0.333333 0.000000
vt 0.000000 0.000000
vt 0.333333 0.000000
vt 0.000000 1.000000
vt 0.000000 0.666667
vt 0.000000 0.666667
vt 0.666667 0.000000
vt 0.000000 0.333333
vt 0.000000 0.000000
vt 0.000000 0.333333
vt 1.000000 0.000000
vt 1.000000 0.000000
vt 0.000000 0.333333
vt 0.000000 1.000000
vt 0.000000 0.666667
vt 0.000000 0.000000
vt 1.000000 0.000000
vt 0.666667 0.000000
vt 0.000000 0.666667
vt 0.000000 0.666667
vt 0.000000 0.666667
vt 0.000000 0.000000
vt 0.000000 0.333333
vt 0.666667 0.000000
vt 0.000000 1.000000
vt 0.000000 0.333333
vt 0.000000 0.333333
vt 0.000000 0.333333
vt 0.000000 0.666667
vt 0.000000 0.666667
vt 0.000000 0.333333
vt 0.000000 0.666667
vt 0.000000 0.666667
vt 0.000000 0.666667
vt 0.000000 0.333333
vt 0.000000 0.333333
vt 0.000000 0.333333
vt 0.000000 0.555555
vt 0.000000 0.444444
vt 0.000000 0.444444
vt 0.000000 0.333333
vt 0.000000 0.666667
vt 0.000000 0.333333
vt 0.000000 0.666667
vt 0.000000 0.555555
vt 0.666667 0.000000
vt 1.000000 0.333333
vt 1.000000 1.000000
vt 0.000000 1.000000
vn 0.0000 1.0000 0.0000
vn -1.0000 0.0000 0.0000
vn 0.0000 0.0000 -1.0000
vn 1.0000 0.0000 0.0000
vn 0.0000 -1.0000 -0.0000
vn 0.0000 -0.0000 1.0000
usemtl None
s 1
f 2/1/1 4/2/1 1/3/1
f 6/4/1 8/5/1 5/6/1
f 10/7/1 12/8/1 9/9/1
f 5/6/1 11/10/1 10/7/1
f 14/11/1 16/12/1 13/13/1
f 1/3/1 15/14/1 14/11/1
f 18/15/1 20/16/1 17/17/1
f 17/17/2 22/18/2 21/19/2
f 23/20/3 25/21/3 17/17/3
f 27/22/4 29/23/4 26/24/4
f 17/17/3 30/25/3 18/15/3
f 31/26/4 24/27/4 23/20/4
f 26/24/4 32/28/4 31/26/4
f 18/15/3 34/29/3 33/30/3
f 29/23/5 36/31/5 32/28/5
f 28/32/5 35/33/5 29/23/5
f 32/28/5 34/34/5 24/27/5
f 5/6/3 39/35/3 6/4/3
f 38/36/3 33/30/3 39/35/3
f 40/37/6 42/38/6 13/13/6
f 26/24/6 41/39/6 40/37/6
f 12/8/4 45/40/4 9/9/4
f 44/41/4 23/20/4 45/40/4
f 10/7/3 38/36/3 5/6/3
f 38/36/4 19/42/4 18/15/4
f 16/12/4 40/37/4 13/13/4
f 47/43/4 26/24/4 40/37/4
f 9/9/3 21/19/3 10/7/3
f 45/40/3 17/17/3 21/19/3
f 48/44/2 50/45/2 51/46/2
f 48/44/2 52/47/2 43/48/2
f 12/8/3 49/49/3 44/41/3
f 31/26/5 43/48/5 26/24/5
f 44/41/3 48/44/3 31/26/3
f 55/50/6 57/51/6 54/52/6
f 58/53/3 60/54/3 50/45/3
f 43/48/2 55/50/2 41/39/2
f 53/55/2 50/45/2 49/49/2
f 41/39/2 54/52/2 42/38/2
f 42/56/1 62/57/1 53/58/1
f 53/58/1 59/59/1 58/53/1
f 51/46/5 64/60/5 52/47/5
f 50/45/3 63/61/3 51/46/3
f 52/47/6 56/62/6 55/50/6
f 54/52/1 61/63/1 42/56/1
f 13/13/1 53/55/1 12/8/1
f 21/19/5 46/64/5 38/36/5
f 8/5/1 14/11/1 11/10/1
f 22/18/3 19/42/3 46/64/3
f 11/10/1 13/13/1 12/8/1
f 7/65/1 1/3/1 8/5/1
f 2/1/1 3/66/1 4/2/1
f 6/4/1 7/65/1 8/5/1
f 10/7/1 11/10/1 12/8/1
f 5/6/1 8/5/1 11/10/1
f 14/11/1 15/14/1 16/12/1
f 1/3/1 4/2/1 15/14/1
f 18/15/1 19/42/1 20/16/1
f 17/17/2 20/16/2 22/18/2
f 23/20/3 24/27/3 25/21/3
f 27/22/4 28/32/4 29/23/4
f 17/17/3 25/21/3 30/25/3
f 31/26/4 32/28/4 24/27/4
f 26/24/4 29/23/4 32/28/4
f 18/15/3 30/25/3 34/29/3
f 29/23/5 35/33/5 36/31/5
f 28/32/5 37/67/5 35/33/5
f 32/28/5 36/31/5 34/34/5
f 5/6/3 38/36/3 39/35/3
f 38/36/3 18/15/3 33/30/3
f 40/37/6 41/39/6 42/38/6
f 26/24/6 43/48/6 41/39/6
f 12/8/4 44/41/4 45/40/4
f 44/41/4 31/26/4 23/20/4
f 10/7/3 21/19/3 38/36/3
f 38/36/4 46/64/4 19/42/4
f 16/12/4 47/43/4 40/37/4
f 47/43/4 27/22/4 26/24/4
f 9/9/3 45/40/3 21/19/3
f 45/40/3 23/20/3 17/17/3
f 48/44/2 49/49/2 50/45/2
f 48/44/2 51/46/2 52/47/2
f 12/8/3 53/55/3 49/49/3
f 31/26/5 48/44/5 43/48/5
f 44/41/3 49/49/3 48/44/3
f 55/50/6 56/62/6 57/51/6
f 58/53/3 59/59/3 60/54/3
f 43/48/2 52/47/2 55/50/2
f 53/55/2 58/53/2 50/45/2
f 41/39/2 55/50/2 54/52/2
f 42/56/1 61/63/1 62/57/1
f 53/58/1 62/57/1 59/59/1
f 51/46/5 63/61/5 64/60/5
f 50/45/3 60/54/3 63/61/3
f 52/47/6 64/60/6 56/62/6
f 54/52/1 57/51/1 61/63/1
f 13/13/1 42/38/1 53/55/1
f 21/19/5 22/18/5 46/64/5
f 8/5/1 1/3/1 14/11/1
f 22/18/3 20/16/3 19/42/3
f 11/10/1 14/11/1 13/13/1
f 7/65/1 2/1/1 1/3/1
