<?xml version="1.0" encoding="UTF-8" standalone="no"?>
<!DOCTYPE svg PUBLIC "-//W3C//DTD SVG 1.1//EN" "http://www.w3.org/Graphics/SVG/1.1/DTD/svg11.dtd">
<svg width="100%" height="100%" viewBox="0 0 1024 1024" version="1.1" xmlns="http://www.w3.org/2000/svg" xmlns:xlink="http://www.w3.org/1999/xlink" xml:space="preserve" xmlns:serif="http://www.serif.com/" style="fill-rule:evenodd;clip-rule:evenodd;stroke-linejoin:round;stroke-miterlimit:2;">
    <g id="Colour" transform="matrix(1.90235,0,0,2.40429,-2046.32,0)">
        <rect x="1075.68" y="0" width="538.281" height="425.905" style="fill:none;"/>
        <g transform="matrix(0.726633,0,0,0.574935,972.788,-97.1059)">
            <path d="M553.212,286.339C551.47,272.798 549.627,259.258 547.682,245.716C545.615,231.374 549.878,216.842 559.366,205.889C568.853,194.936 582.629,188.643 597.119,188.643C622.548,188.643 651.637,188.643 672.816,188.654C691.941,188.654 709.386,199.577 717.739,216.782C717.74,216.783 717.74,216.784 717.741,216.786C801.607,390.386 855.657,565.166 870.104,741.503C870.105,741.507 870.105,741.51 870.105,741.513C871.175,755.387 866.41,769.077 856.957,779.288C847.503,789.498 834.22,795.303 820.305,795.303C791.162,795.303 752.932,795.303 715.132,795.301C715.273,813.919 714.824,832.63 713.722,851.471C712.854,865.211 702.47,876.459 688.843,878.419C578.395,893.758 441.236,893.754 335.371,878.584C321.656,876.538 311.296,865.088 310.628,851.236C309.812,832.466 309.642,813.835 310.048,795.301C271.854,795.303 233.127,795.303 203.679,795.303C189.764,795.303 176.48,789.498 167.027,779.288C157.574,769.077 152.808,755.387 153.879,741.513C153.879,741.51 153.879,741.507 153.879,741.503C168.327,565.166 222.377,390.386 306.243,216.786C306.244,216.784 306.244,216.783 306.245,216.782C314.597,199.577 332.043,188.654 351.168,188.654C372.347,188.643 401.436,188.643 426.864,188.643C441.355,188.643 455.131,194.936 464.618,205.889C474.105,216.842 478.368,231.374 476.301,245.716C474.363,259.22 472.524,272.722 470.787,286.221C498.029,284.562 525.507,284.607 553.212,286.339ZM415.895,674.245C415.88,674.236 415.865,674.227 415.85,674.218C360.523,641.347 323.42,580.971 323.42,512C323.42,437.501 366.713,373.03 429.496,342.419C429.505,342.414 429.515,342.41 429.524,342.405C438.49,338.053 444.605,329.416 445.734,319.515C445.735,319.506 445.736,319.497 445.737,319.487C448.69,293.916 452.006,268.338 455.68,242.754C455.68,242.751 455.681,242.748 455.681,242.745C456.886,234.385 454.401,225.913 448.871,219.529C443.341,213.145 435.311,209.477 426.864,209.477C401.439,209.477 372.355,209.477 351.177,209.487C351.174,209.487 351.171,209.487 351.168,209.487C340.025,209.487 329.86,215.85 324.99,225.872C242.31,397.024 188.899,569.302 174.648,743.15C174.034,751.225 176.812,759.191 182.314,765.134C187.825,771.086 195.568,774.469 203.679,774.469C203.679,774.469 203.679,774.469 203.679,774.469C259.168,774.469 347.599,774.469 403.308,774.461C403.309,774.461 403.31,774.461 403.311,774.461C411.327,774.461 418.988,771.156 424.487,765.324C429.986,759.492 432.837,751.651 432.368,743.649C432.367,743.644 432.367,743.64 432.367,743.636C431.489,728.517 430.766,713.397 430.183,698.277C430.183,698.265 430.182,698.253 430.182,698.24C429.82,688.33 424.435,679.287 415.895,674.245ZM608.088,674.245C608.103,674.236 608.118,674.227 608.133,674.218C663.461,641.347 700.564,580.971 700.564,512C700.564,437.501 657.27,373.03 594.488,342.419C594.478,342.414 594.469,342.41 594.459,342.405C585.494,338.053 579.379,329.416 578.25,319.515C578.249,319.506 578.248,319.497 578.247,319.487C575.294,293.916 571.977,268.338 568.304,242.754C568.304,242.751 568.303,242.748 568.303,242.745C567.098,234.385 569.583,225.913 575.113,219.529C580.643,213.145 588.673,209.477 597.119,209.477C622.544,209.477 651.629,209.477 672.806,209.487C672.81,209.487 672.813,209.487 672.816,209.487C683.959,209.487 694.124,215.85 698.993,225.872C781.674,397.024 835.084,569.302 849.336,743.15C849.949,751.225 847.171,759.191 841.669,765.134C836.159,771.086 828.416,774.469 820.305,774.469C820.305,774.469 820.305,774.469 820.305,774.469C764.816,774.469 676.385,774.469 620.676,774.461C620.675,774.461 620.674,774.461 620.673,774.461C612.657,774.461 604.996,771.156 599.497,765.324C593.997,759.492 591.146,751.651 591.616,743.649C591.616,743.644 591.617,743.64 591.617,743.636C592.494,728.517 593.218,713.397 593.8,698.277C593.801,698.265 593.801,698.253 593.802,698.24C594.164,688.33 599.549,679.287 608.088,674.245ZM580.391,358.374C559.491,349.047 536.346,343.861 512,343.861C487.628,343.861 464.461,349.058 443.551,358.4C441.971,359.401 440.327,360.319 438.623,361.146C382.775,388.377 344.253,445.725 344.253,512C344.253,573.358 377.271,627.064 426.491,656.307L426.491,656.307C428.127,657.274 429.696,658.326 431.195,659.457C455.173,672.637 482.718,680.139 512,680.139C541.255,680.139 568.775,672.651 592.748,659.488C594.257,658.346 595.84,657.283 597.493,656.307L597.493,656.307C646.713,627.064 679.731,573.358 679.731,512C679.731,445.725 641.209,388.377 585.361,361.146C583.641,360.312 581.983,359.385 580.391,358.374ZM402.084,411.129C429.368,381.418 468.525,362.785 512,362.785C533.313,362.785 553.589,367.263 571.945,375.333C570.449,377.147 568.926,379.034 567.466,380.905C560.532,389.791 528.227,459.266 548.542,462.863C568.857,466.461 584.501,422.545 594.43,433.762C604.359,444.979 566.998,497.635 532.035,512C498.034,525.97 465.449,511.629 457.69,523.903C449.932,536.177 450.768,577.561 481.455,568.768C512.141,559.975 518.352,541.168 530.657,542.587C557.453,545.676 535.057,584.924 559.016,575.293C571.233,570.381 559.853,533.472 572.135,535.333C584.418,537.194 609.082,540.215 606.457,554.049C603.831,567.883 581.782,593.773 555.372,595.952C528.962,598.131 497.304,582.943 481.455,592.913C465.605,602.884 483.707,633.615 504.977,650.883C510.305,655.209 515.459,658.496 520.194,660.993C517.484,661.14 514.751,661.215 512,661.215C434.744,661.215 371.122,602.375 363.542,527.11C365.059,529.42 366.806,531.663 368.801,533.652C377.631,542.456 384.904,547.776 401.629,538.698C418.355,529.621 401.125,504.466 400.252,487.574C399.38,470.682 419.026,464.864 430.183,451.944C441.339,439.023 426.694,426.344 416.474,418.492C411.973,415.034 406.64,412.68 402.084,411.129ZM492.345,452.576C503.312,448.733 508.32,453.296 510.024,461.771C511.727,470.246 518.185,483.208 511.858,491.309C505.531,499.41 490.488,505.045 479.005,496.257C465.266,485.742 489.115,480.464 489.648,472.022C490.182,463.581 481.377,456.418 492.345,452.576Z" style="fill:white;"/>
        </g>
    </g>
</svg>
